<?xml version="1.0" encoding="utf-8"?>
<!-- Generator: Adobe Illustrator 22.0.1, SVG Export Plug-In . SVG Version: 6.00 Build 0)  -->
<svg version="1.1" id="Layer_1" xmlns="http://www.w3.org/2000/svg" xmlns:xlink="http://www.w3.org/1999/xlink" x="0px" y="0px"
	 width="250.1px" height="228.42px" viewBox="0 0 250.1 228.42" enable-background="new 0 0 250.1 228.42" xml:space="preserve">
<g>
	<g>
		<path fill="#35B7E9" d="M250.05,139.1l-17.96,4.63c-3.68-1.11-8.25-0.92-11.95-0.03l0.13-17.8l-50.03-0.1
			c3.09-3.58,4.88-7.46,5.52-12.08l-5.96-4.2c0.92-4.03,0.39-7.88-0.17-11.92c1.71-2.34,3.05-4.7,3.97-7.44
			c2.94,3.52,4.75,7.29,5.96,11.73c4.9-3.58,8.91-7.56,11.7-13l3.81,0.36c2.13-9.21,3.16-18.04-0.34-27.11
			c-5.61-6.25-11.82-11.34-18.8-15.99c1.43-9.81-10.08-14.83-17.42-18.17c1.75-4.79,2.81-10.01,2.32-15.12
			c-0.45-4.7-2.47-8.7-4.61-12.83l-0.48,0.59c-1.63,1.61-2.95,3.64-4.47,5.36c-2.5,2.83-5.36,5.42-8.5,7.51
			c-4.96,3.29-10.95,5.3-16.53,7.28c-3.24-0.45-6.47-0.78-9.73-0.98c-8.63-5.89-19.54-6.83-29.66-7.22
			c-6.48,13.13-10.5,27.34-8.35,42.08c-0.21,0.31-0.42,0.62-0.63,0.94C60.53,73.4,54.9,98.16,54.58,122.35
			c-6.73-0.12-14.52,1.41-18.76,7.17c-3.04,4.14-2.6,9.11-2.6,13.96c-7.33-1.58-16.31,0.31-21.02,6.49
			c-4.62,6.07-4.09,14.84-1.54,21.63L0.05,196.46l20.25-5.37c2.79,1.32,6.14,1.82,9.22,1.79l-2.83,6.3l-5.95,12.58l20.93-3.47
			c24.77,6.81,50.54,10.27,76.2,10.93l8.56,9.16l8.27-9.16c25.58-0.68,51.26-4.14,75.95-10.92l20.91,3.47l-8.69-18.59
			c7.46,1.59,16.88-0.55,21.06-7.45c3.61-5.96,3.55-15.66,0.29-21.72L250.05,139.1z"/>
		<path d="M245.75,143.5l-13.78,3.57c-4.47-1.85-11.1-1.01-15.23,1.35l0.14-19.15l-55.75-0.11c4.68-2.97,9.88-8.07,10.89-13.81
			l-6.23-4.39c1.06-3.39,1.26-6.58,0.78-10.1c-2.68,1.86-5.61,3.27-8.95,3.17c-1.31-1.25-2.21-3.02-3.05-4.59
			c-1.63-3.03-2.9-6.22-3.66-9.58l4.29-1.24c3.75,2.9,6.53,6.25,8.95,10.32c3.32-3.86,5.98-7.94,7.02-12.99l2.55-0.19
			c3.48,3.26,5.51,7.13,7.4,11.43c3.5-3.25,6.31-6.84,8.33-11.18l2.74,0.06c1.8-7.47,2.2-14.77-0.49-22.09
			c-5.8-6.45-12.41-11.64-19.81-16.13c2.24-6-2.06-9.44-6.63-12.45c-3.52-2.31-7.42-3.99-11.34-5.52c3.58-6.84,5.17-16.32,1.7-23.49
			c-3.87,4.76-8.68,9.11-14.17,11.9c-4.76,2.42-9.81,4.32-14.84,6.07c-3.76-0.54-7.53-0.93-11.32-1.13
			c-7.07-5.72-17.6-6.74-26.32-7.07c-5.84,11.86-9.54,26.12-6.79,39.34l-0.27,0.37c-14.09,13.4-21.12,31.94-23.24,50.97
			c-0.7,6.34-1.05,12.73-0.93,19.11c-6.79-0.93-16.52,0.07-20.03,6.97c-1.93,3.79-1.13,8.78-1.15,12.91l-2.51,1.23
			c-3.46-1.4-8.3-1.08-11.85-0.06c-3.11,0.89-5.95,2.7-7.8,5.39c-3.75,5.44-2.87,13.53-0.3,19.26l-8.57,20.07l15.2-4.03
			c3.48,2.66,9.8,2.28,13.83,1.69l-5.01,11.17l-3.35,7.09l15.62-2.59c25.16,6.97,51.36,10.47,77.44,11.03l7.11,7.6l6.87-7.61
			c26.01-0.58,52.14-4.07,77.23-11.03l15.62,2.59c-2.8-5.96-5.51-11.94-8.21-17.94l1.35-0.46c3.77,2.04,9.26,1.61,13.33,0.65
			c3.19-0.75,6.19-2.33,8.13-5.03c3.79-5.26,3.62-15.01,0.14-20.31L245.75,143.5z"/>
	</g>
	<g>
		<path fill="#007AC3" d="M90.66,92.85c7.64,6.79,17.41,7.08,17.41,7.08c-1.15-1.9-2-3.89-3.57-5.51c-1.4-1.44-2.98-2.71-4.59-3.9
			c0,0,1.22,0,3.06,0.41c-0.88-11.56,4.48-19.54,16.9-23.46c-5.53-4.66-4.54-13.38,4.45-16.28c-0.95-2.01-0.96-5.33-0.96-5.33
			c4.13,4.06,11.33,5.94,16.98,5.66c2.04-2.08,1.33-6.14-0.14-8.35c4.02,1.47,7.87,4.35,7.15,9.2c3.8-1.42,7.69-2.37,11.74-2.71
			c1.97-0.16,4.13-0.65,4.65-2.84c0.37-1.52-0.21-2.79-1.24-3.89c-3.08-3.27-8.05-5.03-12.17-6.52c-5.37-1.94-10.91-3.29-16.55-4.21
			c-4.47-0.73-9.01-1.27-13.54-1.49c1.87,4.02-0.47,7.69-3.4,10.33c0.44-11.68-12.61-16.22-22.07-17.55c0,0-0.62,1.06-1.41,3.01
			c13.71,3.65,19.32,7.62,20.17,17.3c0,0-1.44,0.18-3.27,0.88c0,0.11,0,0.18,0,0.18c-4.44,1.18-6.93,5.4-7.85,9.62
			c0,0-0.06-0.05-0.14-0.12c-0.85,3.23-0.99,6.14-0.99,6.14l-0.14,0.02c0.09,0.04,0.14,0.05,0.14,0.05
			c-1.23,0.6-2.58,0.99-3.93,1.22c-2.02,0.35-4.22-0.2-6.15,0.53c-3.4,1.27-5.6,5.29-6.54,8.6C82.44,78.66,84.6,87.46,90.66,92.85"
			/>
		<path fill="#007AC3" d="M161.13,57.75c1.65,1.3,2.69,4.67,2.69,4.67s-5.43-3.3-13.27-2.2c-6.22,0.87-10,5.32-10.93,11.75
			c-0.99,6.86,3.54,13.66,3.54,13.66s3.33-1.4,7.21-2.78c-5.8-11.9,2.26-18.06,13.68-13.75c-0.41-1.3-0.57-2.29-0.57-2.29
			s6.1-1.51,10.07-1.99c3.37-0.41,8.7-0.5,8.7-0.5s-4.06-3.31-7.11-5.44c-1.95-1.36-5.38-2.9-5.38-2.9s-2.37-0.29-3.89-0.28
			c-2.67,0.01-6.79,0.92-6.79,0.92S160.42,57.19,161.13,57.75"/>
		<path fill="#007AC3" d="M153.07,114.5c2.04-1.58,2.62-3.28,0.67-5.17c-1.88-1.82-3.28-3.93-4.59-6.19
			c-1.92-3.31-3.21-6.98-4.24-10.66c-2.61,1-4.89,3.06-6.39,5.38c-2.44,3.78-2.41,7.99-0.44,11.97c4.02-0.34,7.39-1.44,10.75-3.68
			c0.91,3.29,1.06,6.28,0.35,9.62C149.18,115.77,151.81,115.47,153.07,114.5"/>
		<path fill="#007AC3" d="M71.27,122.39l-1.43,6.77l22.15-0.07c-4.01-4.22-9.51-12.34-9.64-25.28c-4.42-4.61-7.19-9.73-8.47-15.21
			c-5.14,13.64-6.12,26.83-6.08,35.16L71.27,122.39z"/>
		<path fill="#35B7E9" d="M180.54,68.99c-3.18,0.1-8.13,0.73-8.13,0.73l0.64,1.56c5.1,0.28,7.04,2.02,8.45,4.29
			c0.55,0.88,0.87,1.86,0.87,1.86h2.67c0,0-0.36-1.73-0.12-2.8c0.4-1.82,1.3-2.94,2.98-3.73l-0.42-1.77
			C187.48,69.13,183.25,68.91,180.54,68.99"/>
		<path fill="#35B7E9" d="M148.82,71.78c-2.11,5.43,0.63,9.81,1.56,11.08c2.3-0.82,4.79-1.62,6.89-2.13
			c7.52-1.8,17.09-2.11,17.09-2.11s-0.43-0.99-0.93-1.43c-1.55-1.37-1.95-0.74-5.34-2.3c-2.16-0.99-3.39-3.76-4.03-5.78
			C159.21,66.26,150.77,66.75,148.82,71.78"/>
		<path fill="#35B7E9" d="M102.27,54.37c-0.77-0.68-4.77-4.39-5.66-9.5c-0.99-5.66,1.13-11.74,1.13-11.74s4.88,1.06,8.7,3.18
			c3.44,1.91,3.78,7.33,3.82,8.38c1.83-0.7,3.27-0.87,3.27-0.87s0.38-6.48-3.69-10.41c-4.21-4.07-11.26-5.74-16.48-6.89
			c-1.45,3.57-3.49,10.12-3.4,18.64c0.11,10.6,9.92,14.86,11.18,15.37l0.14-0.02C101.28,60.51,101.42,57.61,102.27,54.37"/>
		<path fill="#35B7E9" d="M116.98,56.2c-3.84,7.26,2.26,11.18,2.26,11.18s-9.2,1.84-13.73,9.2c-4.09,6.65-3,12.63-2.55,14.36
			c3.78,0.85,10.21,3.47,14.3,11.54c5.66,11.18,13.71,23.55,27.17,24.06c5.65,0.22,9.98-1.1,13.18-2.82c1.84-1.1,3.42-2.3,4.72-3.43
			c1.91-1.84,2.77-3.37,2.77-3.37l-2.69-1.98c0,0-8.83,8.97-18.4,7.08c-12.17-2.41-14.78-12.83-14.33-19.65
			c0.37-5.72,3.85-9.82,3.85-9.82s-4.14-3.62-5.59-10.19c-2.61-11.81,4.1-17.28,4.1-17.28s-1.62-0.12-2.98-1.49
			c-2.67-2.67-1.77-3.93-3.98-4.97c-2.11-0.99-4.56,0.14-4.56,0.14s1.52-2.28,2.97-3.11c1.38-0.79,3.96-0.99,3.96-0.99
			s-2.14-1.66-2.97-3.11c-0.06-0.11-0.12-0.22-0.17-0.33C121.83,51.66,118.72,52.92,116.98,56.2"/>
		<path fill="#FEFEFE" d="M160.81,87.31c1.77-0.33,3.55-0.6,5.34-0.81c-0.47,1.52-1.12,2.92-1.93,4.29
			C163.31,89.44,162.31,88.04,160.81,87.31 M158.51,107.88c1.17,1.02,1.92,2.11,2.37,3.61c1.16-1.3,1.69-2.57,1.7-4.32
			C161.24,107.62,159.93,107.89,158.51,107.88 M141.11,56.92c-2.53-0.15-4.91-0.52-7.29-1.41
			C130.77,60.63,141.07,63.08,141.11,56.92 M179.95,85.76c0.99,1.15,1.75,2.35,2.36,3.73c1.13-1.08,1.98-2.21,2.55-3.67
			C183.22,85.7,181.59,85.68,179.95,85.76 M140.4,113.79c1.11,1.29,2.81,2.59,4.6,2.55c0.81-1.44,1.05-2.75,0.85-4.39
			C144.13,113,142.41,113.56,140.4,113.79"/>
	</g>
	<g>
		<path fill="#007AC3" d="M208.72,182.53c-23.84,7.91-57.57,11.7-82.53,11.7h-0.08c-24.96,0-58.69-3.79-82.53-11.7l-8.35,18.67
			l6.67-1.11c4.44,1.25,11.42,3.05,20.42,4.85c14.87,2.97,35.33,5.94,58.82,6.32l5.18,5.54l5-5.54c23.43-0.39,43.84-3.35,58.68-6.32
			c9-1.8,15.98-3.6,20.42-4.85l6.67,1.11L208.72,182.53z"/>
		<polygon fill="#007AC3" points="88.94,154.43 45.58,154.43 44.6,156.08 90.29,156.08 		"/>
		<polygon fill="#007AC3" points="211.4,154.43 129.57,154.43 128.59,156.08 211.4,156.08 		"/>
		<path fill="#FEFEFE" d="M58.09,194.24c0.05-0.04,0.08-0.08,0.1-0.13c0.15-0.43-1.07-1.27-2.56-1.64c-2.01-0.5-3.63,0.04-4.07,1.36
			c-0.43,1.28,0.5,2.42,2.55,2.92c0.97,0.24,1.75,0.33,2.92,0.1c0.23-0.04,0.34-0.08,0.38-0.22c0.02-0.06,0.03-0.15,0.02-0.25
			l0.25-0.05l0.96,2.97l-0.26,0.04c-0.12-0.18-0.2-0.27-0.27-0.29c-0.3-0.08-1.9,0.52-4.67-0.16c-3.93-0.97-5.47-3.31-4.67-5.71
			c0.79-2.37,3.57-3.66,7.23-2.75c2.32,0.57,3.45,1.61,3.93,1.73c0.16,0.04,0.31-0.01,0.53-0.14l0.19,0.13l-2.36,2.23L58.09,194.24
			 M80.13,199.47c0.29-1.4-0.64-2.55-2.38-2.81c-1.73-0.26-3.07,0.53-3.36,1.94c-0.29,1.41,0.62,2.53,2.41,2.8
			C78.54,201.67,79.85,200.87,80.13,199.47 M78.15,194.72c3.42,0.52,5.3,2.77,4.81,5.16c-0.49,2.4-3.18,3.96-6.57,3.45
			c-3.38-0.52-5.29-2.78-4.8-5.18C72.07,195.76,74.72,194.2,78.15,194.72 M104.04,198.13c0.38,0.09,0.47,0.2,0.44,0.52l-0.38,3.7
			c-0.14,1.33-0.67,1.99-2.49,1.85c-1.77-0.13-2.23-0.78-2.08-2.23l0.37-3.67c0.03-0.32,0.12-0.41,0.51-0.45l0.02-0.21l-3.7-0.28
			l-0.02,0.21c0.38,0.1,0.47,0.2,0.43,0.52l-0.41,4.09c-0.26,2.53,1.23,3.9,4.64,4.16c3.33,0.25,5.21-0.84,5.45-3.27l0.43-4.22
			c0.03-0.31,0.14-0.4,0.53-0.45l0.02-0.21l-3.74-0.28L104.04,198.13z M126.74,202.31h-0.26v2.32h0.26c0.09-0.34,0.19-0.4,0.54-0.4
			h2.04v0.84c-0.82,0.32-1.63,0.47-2.52,0.47c-2.18,0-3.49-0.95-3.49-2.46c0-1.48,1.4-2.53,3.53-2.53c1.66,0,3.03,0.5,3.03,0.95
			c0,0.05-0.02,0.1-0.06,0.14l0.24,0.08l1.55-2.51l-0.22-0.08c-0.17,0.18-0.3,0.26-0.47,0.26c-0.51,0-1.93-0.72-4.33-0.72
			c-3.81,0-6.07,1.9-6.07,4.36c0,2.49,2.22,4.38,6.33,4.38c2.09,0,3.77-0.56,5.74-1.4v-0.23c-0.39-0.08-0.49-0.16-0.49-0.47v-1.87
			c0-0.3,0.09-0.4,0.49-0.48v-0.24h-5.29C126.93,202.72,126.83,202.65,126.74,202.31 M152.16,202.84l-2.14-3.55l-1.13,3.84
			L152.16,202.84z M156.37,204.98c0.12,0.2,0.19,0.34,0.54,0.42l0.03,0.22l-3.57,0.32l-0.03-0.22c0.23-0.07,0.34-0.18,0.32-0.32
			c-0.01-0.08-0.06-0.19-0.15-0.36l-0.5-0.88l-4.53,0.41l-0.28,0.95c-0.04,0.12-0.05,0.2-0.04,0.28c0.03,0.21,0.17,0.31,0.44,0.35
			l0.03,0.23l-3.33,0.3l-0.03-0.22c0.51-0.29,0.59-0.72,0.73-1.23l1.83-6.28c0.08-0.27,0.11-0.45,0.11-0.51
			c-0.02-0.18-0.1-0.23-0.31-0.23l-0.03-0.22l4.85-0.44l0.03,0.22c-0.2,0.03-0.27,0.11-0.25,0.28c0.01,0.05,0.08,0.23,0.23,0.48
			L156.37,204.98 M174.67,198.41c1.43-0.24,2.07-0.61,1.91-1.3c-0.17-0.76-0.91-0.82-2.41-0.56l-2.29,0.38l0.42,1.88L174.67,198.41
			 M179.39,201.35c0.48,0.44,0.81,0.73,1.33,0.74l0.05,0.22l-3.87,0.65l-0.05-0.22c0.19-0.08,0.28-0.19,0.25-0.32
			c-0.03-0.14-0.21-0.24-0.37-0.4l-2.06-1.87l-1.98,0.33l0.54,2.39c0.07,0.3,0.18,0.36,0.58,0.38l0.05,0.22l-3.65,0.61l-0.05-0.22
			c0.37-0.14,0.42-0.23,0.36-0.53l-1.56-6.94c-0.07-0.3-0.16-0.37-0.56-0.38l-0.05-0.22l6.69-1.12c2.48-0.41,4.03,0.39,4.39,1.99
			c0.29,1.29-0.36,2.3-1.89,2.99L179.39,201.35 M197.25,193.49c-2.05,0.37-3.09,0.65-3.29,0.01c-0.15-0.48,0.57-1.08,2.07-1.43
			c1.77-0.41,3.56-0.31,3.7,0.13c0.01,0.05,0,0.12,0.01,0.22l0.26,0.04l0.48-2.44l-0.26-0.04c-0.07,0.22-0.17,0.26-0.37,0.3
			c-0.56,0.13-2.27-0.19-4.45,0.31c-2.89,0.67-4.3,2.16-3.84,3.62c0.46,1.48,2.15,1.89,5.11,1.3c1.79-0.34,2.94-0.63,3.22,0.27
			c0.18,0.58-0.53,1.17-2.04,1.52c-2.25,0.52-4.22,0.24-4.39-0.32c-0.01-0.05-0.01-0.1,0.01-0.15l-0.26-0.04l-0.54,2.79l0.26,0.04
			c0.1-0.19,0.16-0.3,0.28-0.33c0.2-0.05,1.96,0.33,5.14-0.4c3.05-0.71,4.51-2.36,4.01-3.95
			C201.84,193.3,200.22,192.96,197.25,193.49 M71.47,143.11h5.43v-3.7c0-1.84-0.7-2.38-2.71-2.38c-2.14,0-2.71,0.64-2.71,2.38
			V143.11z M64.92,148.26v-8.33c0-3.58,2.68-5.79,7.21-5.79h3.93c4.53,0,7.37,2.24,7.37,5.79v8.33l1.71,2.66l-8.25,0.02L76.89,146
			h-5.43l-0.14,4.94l-8.75,0.09L64.92,148.26 M103.95,143.14l-4.05,4.91h-4.69v-11.11l2.09-2.76l-2.57,0.03h-6.11l-2.32,0.02
			l2.36,2.66v11.36l-2.36,2.66l2.39,0.02l15.26-0.02V143.14z M145.89,137.11l4.56,3.79v-4.03c0-2.28-0.67-2.66-3.29-2.66h-12.61
			c-2.62,0-3.29,0.38-3.29,2.66v4.03l4.56-3.79h1.76v10.88l-2.68,2.93h11.86l-2.64-2.99v-10.83H145.89z M193.21,150.93l18.16,0.02
			l0.01-5.51l-3.61,2.61h-5.62v-4.19h2.9l2.76,1.84v-6.45l-2.76,1.95h-2.9v-4.09h6.07l3.19,2.49v-5.39l-17.91-0.03l2.27,2.71v11.36
			L193.21,150.93z M164.13,139.42c0-1.84-0.7-2.38-2.71-2.38c-2.14,0-2.71,0.63-2.71,2.38v3.69h5.43V139.42 M152.16,139.93
			c0-3.58,2.68-5.79,7.21-5.79h3.93c4.53,0,7.37,2.23,7.37,5.79v8.33l1.71,2.66l-8.25,0.02l-0.01-4.94h-5.43l-0.14,4.94l-8.75,0.09
			l2.35-2.77V139.93 M179.26,137.11v10.88l-2.68,2.93h11.86l-2.64-2.99v-10.83h1.75l4.57,3.79v-4.03c0-2.28-0.67-2.66-3.29-2.66
			h-12.61c-2.62,0-3.29,0.38-3.29,2.66v4.03l4.57-3.79H179.26z M53.49,151.33c4.93,0,8.06-1.89,9.62-4.81
			c0.65-1.21-1.3-1.75-2.06-1.13c-1.72,1.41-3.44,2.28-6.03,2.28c-2.9,0-3.9-0.85-3.9-2.84v-7.57c0-2.08,0.73-2.84,3.29-2.84
			c2.41,0,3.82,0.85,5,3.18h3.55l2.57-8.26l-5.71,2.98c-1.45-1.17-2.63-1.56-6.33-1.56c-7.29,0-10.39,2.84-10.39,7.12v6.33
			C43.11,148.49,46.54,151.33,53.49,151.33 M119.48,147.85c-2.37,0-4.05-0.59-5.23-2.9h-3.44l-2.74,6.83l6.4-1.74
			c2,0.9,1.87,1.18,5.8,1.18c8.17,0,10.39-2.08,10.39-5.77v-1.1c0-4.31-3.4-5.49-6.8-5.97c-4.05-0.56-6.72-0.65-6.72-2.22v-0.59
			c0-1.15,1.37-1.55,3.44-1.55c2.63,0,4.09,0.42,5.16,2.62h3.28l2.12-7.59l-5.71,2.63c-2.02-0.89-1.6-1.04-5.88-1.04
			c-5.92,0-9.05,2.14-9.05,5.43v1.21c0,4.62,3.78,5.74,7.26,6.22c3.9,0.53,5.88,0.51,5.88,1.89v0.84
			C123.64,147.34,122.46,147.85,119.48,147.85 M79.27,178.87l1.92,1.27l7.56-0.08l-2.48-3.29v-14.26l2.33-3.6H79.2l2.78,3.6v8.83
			l-7.23-10.93l-1.91-1.5h-7.58l2.49,3.6v14.26l-1.89,3.29h8.03l-1.86-3.29v-8.83L79.27,178.87z M126.1,184.67l-2.72-3.97
			l-0.05-22.13l3.3-4.14h-10.69l-2.34,1.69l-3.96,8.42l-3.79-8.42l-2.22-1.69H92.27l3.74,4.14l0.05,22.13l-2.84,4.1h10.46l-2.47-4.1
			l-0.05-18.36l4.95,12.18h3.38l5.4-12.18l0.05,18.36l-2.62,3.97H126.1z M158.75,168.66h2.4c2.16,0,2.95-0.53,2.95-2.36v-1.57
			c0-1.83-0.79-2.18-2.95-2.18h-2.4V168.66z M160.26,171.85h-1.51v4.7l1.98,3.52h-11.06l2.13-3.52v-14.26l-2.89-3.37h13.99
			c5,0,8.12,1.74,8.12,5.91v1.42c0,2.66-1.41,4.28-3.87,5.05l2.53,5.05l3.17,3.73h-7.58l-2.12-1.93L160.26,171.85 M183.21,162.69
			c2.16,0,3.43,0.89,4.49,3.34l2.42-0.06l3.18-7.57l-5.84,1.69c-1.78-0.99-1.75-1.24-5.07-1.24c-6.55,0-9.32,2.98-9.32,7.47v6.65
			c0,4.49,3.08,7.47,9.32,7.47c4.42,0,7.23-1.98,8.64-5.05c0.58-1.27-1.17-1.83-1.85-1.18c-1.54,1.48-3.08,2.39-5.42,2.39
			c-2.6,0-3.49-0.89-3.49-2.98v-7.95C180.27,163.48,180.92,162.69,183.21,162.69 M200.08,173.61c0,2.18,0.65,2.98,2.95,2.98
			c2.16,0,2.95-0.68,2.95-2.98v-7.95c0-2.3-0.79-2.98-2.95-2.98c-2.3,0-2.95,0.8-2.95,2.98V173.61z M200.83,180.23
			c-5,0-7.95-2.78-7.95-7.27v-6.64c0-4.49,2.95-7.27,7.95-7.27h4.39c5,0,7.95,2.81,7.95,7.27v6.64c0,4.49-2.95,7.27-7.95,7.27
			H200.83 M39.71,175.53v-1.73c0-6.78-3.72-8.64-7.44-9.4c-4.43-0.89-7.35-1.02-7.35-3.5v-0.93c0-1.82,1.51-2.44,3.76-2.44
			c2.88,0,4.47,0.66,5.64,4.12h3.59l4.45-12.58l-8.38,4.78c-2.21-1.41-1.75-1.64-6.43-1.64c-6.48,0-9.9,3.37-9.9,8.55v1.9
			c0,7.27,4.14,9.04,7.94,9.79c4.26,0.84,6.44,0.8,6.44,2.97v1.33c0,1.73-1.3,2.52-4.55,2.52c-2.59,0-4.43-0.93-5.73-4.56h-3.76
			l-4.97,10.1l8.98-2.08c2.19,1.42,2.05,1.86,6.35,1.86C37.29,184.61,39.71,181.33,39.71,175.53 M50.17,170.18h5.87v-4.67
			c0-2.32-0.76-3-2.93-3c-2.31,0-2.93,0.8-2.93,3V170.18z M50.02,180.08l-9.46,0.11l2.53-3.5v-10.53c0-4.52,2.9-7.32,7.8-7.32h4.25
			c4.9,0,7.97,2.83,7.97,7.32v10.53l1.85,3.37l-8.91,0.02l-0.01-6.24h-5.87L50.02,180.08 M134.88,170.18h5.87v-4.67
			c0-2.32-0.76-3-2.93-3c-2.31,0-2.93,0.8-2.93,3V170.18z M134.88,173.84l-0.15,6.24l-9.46,0.11l2.54-3.5v-10.53
			c0-4.52,2.9-7.31,7.8-7.31h4.24c4.9,0,7.97,2.82,7.97,7.31v10.53l1.85,3.37l-8.91,0.02l-0.01-6.24H134.88 M226.59,157.54
			c2.86,0,4.44,0.66,5.6,4.12h3.57l2.96-10.54l-6.86,2.74c-2.2-1.41-1.74-1.64-6.39-1.64c-6.43,0-9.84,3.37-9.84,8.55v1.9
			c0,7.27,4.11,9.04,7.89,9.79c4.23,0.84,6.39,0.8,6.39,2.97v1.33c0,1.73-1.29,2.53-4.52,2.53c-2.57,0-4.4-0.93-5.69-4.56h-3.74
			l-3.25,10.46l7.24-2.44c2.18,1.42,2.03,1.86,6.31,1.86c8.88,0,11.29-3.28,11.29-9.08v-1.73c0-6.78-3.69-8.64-7.39-9.39
			c-4.4-0.89-7.3-1.02-7.3-3.5v-0.93C222.86,158.16,224.35,157.54,226.59,157.54"/>
	</g>
</g>
</svg>
